<?xml version="1.0" encoding="UTF-8"?>
<svg version="1.1" xmlns="http://www.w3.org/2000/svg" width="32" height="32">
<path d="M0 0 C0.7115625 -0.00386719 1.423125 -0.00773438 2.15625 -0.01171875 C5.67927559 -0.00514594 8.55573402 0.26393351 12 1.125 C12 6.075 12 11.025 12 16.125 C4.08 16.125 -3.84 16.125 -12 16.125 C-12 11.175 -12 6.225 -12 1.125 C-7.89653135 0.09913284 -4.18687102 -0.02275473 0 0 Z M-9 5.125 C-9 7.765 -9 10.405 -9 13.125 C-3.06 13.125 2.88 13.125 9 13.125 C9 10.485 9 7.845 9 5.125 C3.06 5.125 -2.88 5.125 -9 5.125 Z " fill="#000000" transform="translate(16,11.875)"/>
<path d="M0 0 C8.58 0 17.16 0 26 0 C27 2 27 2 27 8 C17.76 8 8.52 8 -1 8 C-1 2 -1 2 0 0 Z " fill="#000000" transform="translate(3,4)"/>
</svg>
